<?xml version="1.0" encoding="UTF-8"?>
<svg id="_Слой_1" data-name="Слой 1" xmlns="http://www.w3.org/2000/svg" viewBox="0 0 60 60">
  <defs>
    <style>
      .cls-1 {
        fill: #e0aaff;
      }

      .cls-1, .cls-2 {
        stroke-width: 0px;
      }

      .cls-2 {
        fill: #10002b;
      }
    </style>
  </defs>
  <g>
    <path class="cls-1" d="m30,58.35c-15.63,0-28.35-12.72-28.35-28.35S14.37,1.65,30,1.65s28.35,12.72,28.35,28.35-12.72,28.35-28.35,28.35Z"/>
    <path class="cls-2" d="m30,3.3c14.72,0,26.7,11.98,26.7,26.7s-11.98,26.7-26.7,26.7S3.3,44.72,3.3,30,15.28,3.3,30,3.3m0-3.3C13.43,0,0,13.43,0,30s13.43,30,30,30,30-13.43,30-30S46.57,0,30,0h0Z"/>
  </g>
  <g>
    <path class="cls-2" d="m26.96,16.35v3.33h-7.96c-.34,0-.65.1-.91.3-.26.2-.48.47-.67.82-.18.35-.32.75-.41,1.2-.09.45-.14.93-.14,1.43,0,1.14.19,2.07.58,2.77.38.7.9,1.06,1.54,1.06h4.09c.83,0,1.55.19,2.18.56.63.37,1.15.89,1.57,1.55s.74,1.45.95,2.36c.21.91.32,1.91.32,2.98,0,1.17-.12,2.25-.35,3.25s-.56,1.87-.98,2.62-.93,1.33-1.51,1.76-1.23.64-1.94.64H6l-2-3.26h17.35c.36,0,.69-.12.97-.35.28-.23.52-.54.73-.94.2-.4.35-.86.45-1.4.1-.54.15-1.12.15-1.73,0-.73-.06-1.34-.17-1.85-.11-.51-.3-.91-.58-1.2-.27-.3-.63-.51-1.08-.64s-1.01-.2-1.7-.2h-2.63c-.83,0-1.56-.18-2.21-.54s-1.19-.87-1.62-1.52c-.43-.65-.76-1.42-.98-2.32-.22-.9-.33-1.9-.33-3s.11-2.05.33-2.98c.22-.93.53-1.75.94-2.44.4-.69.89-1.24,1.47-1.65s1.22-.61,1.92-.61h9.93Z"/>
    <path class="cls-2" d="m54,16.35l1,3.33h-17.51c-.34,0-.65.1-.91.3-.26.2-.48.47-.67.82-.18.35-.32.75-.41,1.2-.09.45-.13.93-.13,1.43,0,1.14.19,2.07.57,2.77.38.7.9,1.06,1.54,1.06h4.09c.83,0,1.55.19,2.18.56.62.37,1.15.89,1.57,1.55s.74,1.45.95,2.36c.21.91.32,1.91.32,2.98,0,1.17-.12,2.25-.35,3.25s-.56,1.87-.98,2.62-.93,1.33-1.51,1.76-1.23.64-1.94.64h-10.11v-3.26h8.14c.36,0,.69-.12.97-.35.28-.23.53-.54.73-.94s.35-.86.46-1.4c.1-.54.15-1.12.15-1.73,0-.73-.05-1.34-.17-1.85s-.3-.91-.58-1.2c-.27-.3-.63-.51-1.07-.64s-1.01-.2-1.7-.2h-2.63c-.83,0-1.56-.18-2.21-.54-.65-.36-1.19-.87-1.62-1.52-.43-.65-.76-1.42-.98-2.32-.22-.9-.33-1.9-.33-3s.11-2.05.33-2.98c.22-.93.53-1.75.94-2.44.4-.69.89-1.24,1.47-1.65.57-.41,1.21-.61,1.92-.61h18.48Z"/>
  </g>
</svg>